# xmcd CD database file
#
# Track frame offsets:
#	150
#	21642
#	53921
#	75005
#	97693
#	116572
#	152373
#	175223
#	190656
#	214891
#
# Disc length: 3129 seconds
#
# Revision: 0
# Processed by: cddbd v1.5.2PL0 Copyright (c) Steve Scherf et al.
# Submitted via: CDex 1.51
#
DISCID=700c370a
DTITLE=Sven Klammer - nevs
DYEAR=2004
DGENRE=Jazz
TTITLE0=anemone
TTITLE1=d.h.
TTITLE2=inocencia
TTITLE3=stille wasser
TTITLE4=o espelho
TTITLE5=sincerity
TTITLE6=tip tap toe
TTITLE7=fantaisie
TTITLE8=nostalgie
TTITLE9=see the sea
EXTD=YEAR: 2004
EXTT0=
EXTT1=
EXTT2=
EXTT3=
EXTT4=
EXTT5=
EXTT6=
EXTT7=
EXTT8=
EXTT9=
PLAYORDER=
